<svg width="27" height="26" viewBox="0 0 27 26" fill="none" xmlns="http://www.w3.org/2000/svg">
<path fill-rule="evenodd" clip-rule="evenodd" d="M21.5032 6.67874C21.901 6.29565 21.9129 5.6626 21.5299 5.26477C21.1468 4.86695 20.5137 4.85501 20.1159 5.2381L13.4985 11.6104L6.88106 5.2381C6.48324 4.85501 5.85019 4.86695 5.4671 5.26477C5.08401 5.6626 5.09596 6.29565 5.49378 6.67874L12.0568 12.9987L5.49378 19.3186C5.09596 19.7017 5.08401 20.3348 5.4671 20.7326C5.85019 21.1304 6.48324 21.1424 6.88106 20.7593L13.4985 14.387L20.1159 20.7593C20.5137 21.1424 21.1468 21.1304 21.5299 20.7326C21.9129 20.3348 21.901 19.7017 21.5032 19.3186L14.9401 12.9987L21.5032 6.67874Z" fill="#2D3440"/>
</svg>
